# xmcd CD database file
# Copyright (C) 1997 Ti Kan
#
# Track frame offsets:
#  182
#  14347
#  28270
#  42342
#  56542
#  70955
#  85162
#  100597
#  115087
#  129855
#  141870
#  155677
#  168995
#  182030
#  193980
#  206847
#  219535
#  231745
#  245157
#  257362
#  270545
#  283145
#  297697
#  312112
#
# Disc length: 4352 seconds
#
# Revision: 1
# Processed by: cddbd v1.4b41PL1 Copyright (c) Steve Scherf et al.
# Submitted via: CDWizzard Release:4.31
#
DISCID=7410fe18
DTITLE=Big Joe Williams - Complete Recorded Works In Chronological Order 
DTITLE=Vol. 1 (1935 - 1941)
DYEAR=1900
DGENRE=
TTITLE0=Little Leg Woman
TTITLE1=Somebody's Been Borrowing That Stuff
TTITLE2=Providence Help The Poor People
TTITLE3=49 Highway Blues
TTITLE4=My Grey Pony
TTITLE5=Stepfather Blues
TTITLE6=Baby Please Don't Go
TTITLE7=Stack O' Dollars
TTITLE8=Wild Cow Blues
TTITLE9=Worried Man Blues
TTITLE10=I Know You Gonna Miss Me
TTITLE11=Rootin' Ground Hog
TTITLE12=Brother James
TTITLE13=I Won't Be In Hard Luck No More
TTITLE14=Crawlin' King Snake
TTITLE15=I'm Getting Wild About Her
TTITLE16=Peach Orchard Mama
TTITLE17=Meet Me Around The Corner
TTITLE18=Throw A Boogie Woogie
TTITLE19=North Wind Blues
TTITLE20=Please Don't Go
TTITLE21=Highway 49
TTITLE22=Someday Baby
TTITLE23=Break 'Em On Down
EXTD=
EXTT0=
EXTT1=
EXTT2=
EXTT3=
EXTT4=
EXTT5=
EXTT6=
EXTT7=
EXTT8=
EXTT9=
EXTT10=
EXTT11=
EXTT12=
EXTT13=
EXTT14=
EXTT15=
EXTT16=
EXTT17=
EXTT18=
EXTT19=
EXTT20=
EXTT21=
EXTT22=
EXTT23=
PLAYORDER=
